<?xml version="1.0" standalone="no"?>
<!DOCTYPE svg PUBLIC "-//W3C//DTD SVG 20010904//EN"
 "http://www.w3.org/TR/2001/REC-SVG-20010904/DTD/svg10.dtd">
<svg version="1.0" xmlns="http://www.w3.org/2000/svg"
 width="700.000000pt" height="700.000000pt" viewBox="0 0 700.000000 700.000000"
 preserveAspectRatio="xMidYMid meet">
<metadata>
Created by potrace 1.14, written by Peter Selinger 2001-2017
</metadata>
<g transform="translate(0.000000,700.000000) scale(0.100000,-0.100000)"
fill="#000000" stroke="none">
<path d="M2580 6058 c-72 -49 -74 -58 -75 -260 l-1 -182 -290 -1 c-287 0 -290
-1 -328 -24 -58 -36 -66 -67 -67 -246 0 -85 -2 -155 -5 -155 -3 0 -65 60 -138
133 -160 159 -176 172 -246 198 -95 36 -217 24 -305 -29 -56 -34 -371 -347
-410 -407 -71 -111 -78 -240 -18 -359 20 -39 153 -178 574 -599 l548 -548 0
-1257 c0 -787 3 -1266 9 -1282 13 -33 40 -62 76 -80 25 -13 302 -15 2181 -14
l2152 0 38 28 c70 54 65 -134 65 2305 0 2453 6 2262 -67 2311 l-36 25 -291 0
-291 1 -1 170 c0 147 -3 175 -20 209 -26 54 -63 77 -126 83 -44 3 -59 0 -87
-20 -67 -45 -74 -70 -75 -258 -1 -93 -5 -172 -9 -177 -9 -8 -626 -12 -628 -3
-1 3 -2 82 -3 175 -2 94 -8 182 -13 196 -26 61 -105 98 -178 85 -45 -9 -102
-65 -110 -108 -3 -18 -7 -105 -8 -193 l-2 -160 -313 0 c-173 0 -316 3 -319 8
-2 4 -5 84 -5 178 -1 156 -3 173 -22 202 -50 74 -133 97 -206 56 -68 -38 -75
-61 -78 -261 -3 -155 -6 -177 -20 -180 -9 -2 -152 -3 -317 -3 l-300 0 -5 180
c-5 165 -7 183 -28 216 -42 68 -138 90 -202 47z"/>
</g>
</svg>
